<svg width="46" height="28" viewBox="0 0 46 28" fill="none" xmlns="http://www.w3.org/2000/svg">
<path d="M22.8355 27.0322C22.2897 27.035 21.7482 26.9286 21.2439 26.7191C20.7397 26.5096 20.2819 26.2015 19.8984 25.813L0.668841 6.4172C0.162388 5.63638 -0.0671476 4.7076 0.0170303 3.78048C0.101153 2.85336 0.494169 1.98132 1.13301 1.30418C1.77186 0.626992 2.61951 0.183879 3.5402 0.0458915C4.46089 -0.0920406 5.4012 0.0830195 6.21051 0.5432L22.8355 17.168L39.4605 0.5432C40.2696 0.0830195 41.21 -0.0920406 42.131 0.0458915C43.0515 0.183879 43.8994 0.626992 44.5378 1.30418C45.1767 1.98132 45.5696 2.85336 45.6539 3.78048C45.7381 4.7076 45.5087 5.63638 45.0022 6.4172L25.6063 25.813C24.8721 26.5578 23.8807 26.994 22.8355 27.0322Z" fill="#134E42"/>
</svg>
