<svg width="71" height="82" viewBox="0 0 71 82" fill="none" xmlns="http://www.w3.org/2000/svg">
<path fill-rule="evenodd" clip-rule="evenodd" d="M68.9857 14.8144C68.9857 18.1517 66.2801 20.8572 62.9429 20.8572C62.4014 20.8572 61.8769 20.786 61.3778 20.6525L58.8349 23.1952C58.7427 23.2874 58.646 23.3724 58.5457 23.4501C61.2448 26.7737 63.218 30.7069 64.2179 35.0019C64.46 34.9725 64.707 34.9572 64.9571 34.9572C68.2944 34.9572 71 37.6628 71 41.0001C71 44.3373 68.2944 47.0429 64.9571 47.0429H64.402C63.3139 52.4267 60.7006 57.2106 56.9991 60.958L61.5784 65.5768C62.0775 65.4434 62.602 65.3721 63.1435 65.3721C66.4808 65.3721 69.1863 68.0777 69.1863 71.415C69.1863 74.7522 66.4808 77.4578 63.1435 77.4578C59.8062 77.4578 57.1006 74.7522 57.1006 71.415C57.1006 70.8735 57.1719 70.349 57.3053 69.8499L52.7494 65.2936C52.5858 65.13 52.4448 64.9523 52.3264 64.7646C50.4265 65.9941 48.3647 66.9972 46.178 67.7365L45.305 70.2068C44.0622 73.7233 40.7088 76.2501 36.7571 76.2501C32.8055 76.2501 29.4521 73.7233 28.2093 70.2068L27.2126 67.3864C25.2189 66.6371 23.3288 65.6714 21.5714 64.5177L16.0261 70.2012C16.4054 71.1358 16.6143 72.1578 16.6143 73.2286C16.6143 77.6786 13.007 81.2858 8.55714 81.2858C4.1073 81.2858 0.5 77.6786 0.5 73.2286C0.5 68.7787 4.1073 65.1715 8.55714 65.1715C9.71842 65.1715 10.8223 65.4172 11.8196 65.8592L16.8765 60.6764C13.6605 57.4286 11.21 53.4214 9.82739 48.9577C9.41362 49.0234 8.98937 49.0572 8.55714 49.0572C4.1073 49.0572 0.5 45.45 0.5 41.0001C0.5 36.5501 4.1073 32.9429 8.55714 32.9429C8.9038 32.9429 9.24539 32.9647 9.58052 33.0074C10.5976 29.3586 12.3371 26.0197 14.6371 23.1525L11.7041 20.2195C10.7373 20.6301 9.67374 20.8572 8.55714 20.8572C4.1073 20.8572 0.5 17.2499 0.5 12.8001C0.5 8.35023 4.1073 4.74293 8.55714 4.74293C13.007 4.74293 16.6143 8.35023 16.6143 12.8001C16.6143 13.9164 16.3872 14.9797 15.9768 15.9464L18.9101 18.8796C23.0361 15.57 28.1387 13.4212 33.7357 12.9152V11.9917C31.9293 10.9468 30.7143 8.99392 30.7143 6.75721C30.7143 3.41982 33.4199 0.714355 36.7571 0.714355C40.0944 0.714355 42.8 3.41982 42.8 6.75721C42.8 8.99392 41.585 10.9468 39.7786 11.9917V13.0122C45.2341 13.6811 50.2295 15.9002 54.3072 19.2115C54.385 19.1111 54.47 19.0145 54.5618 18.9223L57.1047 16.3796C56.9713 15.8804 56.9 15.3557 56.9 14.8144C56.9 11.477 59.6056 8.7715 62.9429 8.7715C66.2801 8.7715 68.9857 11.477 68.9857 14.8144ZM35.75 45.0286C35.75 38.91 40.71 33.9501 46.8286 33.9501C52.9472 33.9501 57.9071 38.91 57.9071 45.0286C57.9071 51.1472 52.9472 56.1072 46.8286 56.1072C40.71 56.1072 35.75 51.1472 35.75 45.0286ZM30.7143 32.9429C34.0516 32.9429 36.7571 30.2375 36.7571 26.9001C36.7571 26.6663 36.7439 26.4357 36.7181 26.2089C36.4969 24.2651 35.3532 22.6013 33.7357 21.6656C32.847 21.1515 31.8149 20.8572 30.7143 20.8572C27.3769 20.8572 24.6714 23.5627 24.6714 26.9001C24.6714 30.2375 27.3769 32.9429 30.7143 32.9429ZM24.6714 49.0572C26.8963 49.0572 28.7 47.2536 28.7 45.0286C28.7 42.8037 26.8963 41.0001 24.6714 41.0001C22.4465 41.0001 20.6429 42.8037 20.6429 45.0286C20.6429 47.2536 22.4465 49.0572 24.6714 49.0572Z" fill="#134E42"/>
<path d="M41.7928 45.0286C41.7928 42.2473 44.0472 39.9929 46.8286 39.9929C49.6099 39.9929 51.8643 42.2473 51.8643 45.0286C51.8643 47.81 49.6099 50.0643 46.8286 50.0643C44.0472 50.0643 41.7928 47.81 41.7928 45.0286Z" fill="#134E42"/>
</svg>
