<svg width="89" height="79" viewBox="0 0 89 79" fill="none" xmlns="http://www.w3.org/2000/svg">
<path d="M47.4375 66.9534H5.87498C4.40524 66.9534 2.99569 66.3695 1.95643 65.3303C0.917165 64.291 0.333313 62.8815 0.333313 61.4117V5.99504C0.333313 4.5253 0.917165 3.11575 1.95643 2.07649C2.99569 1.03722 4.40524 0.453369 5.87498 0.453369H83.4583C84.9281 0.453369 86.3376 1.03722 87.3769 2.07649C88.4162 3.11575 89 4.5253 89 5.99504V34.7286C85.3086 30.0271 79.9391 26.9389 74.019 26.1125C68.099 25.2861 62.089 26.7858 57.2513 30.2967C52.4135 33.8076 49.1244 39.0564 48.0746 44.941C47.0248 50.8255 48.2961 56.8879 51.6215 61.855L49.0446 65.0138L47.4375 66.9534ZM14.1875 17.0784V21.5117H61.2917V17.0784H14.1875ZM14.1875 32.595H44.6667V28.1617H14.1875V32.595ZM14.1875 51.9909H41.8958V47.5575H14.1875V51.9909Z" fill="#134E42"/>
<path d="M88.529 49.1924C88.5364 46.2709 87.8185 43.3932 86.4396 40.8174C85.0607 38.2417 83.0641 36.0486 80.6287 34.4347C78.1933 32.8208 75.3954 31.8368 72.4859 31.5708C69.5765 31.3047 66.6465 31.7651 63.9589 32.9105C61.2712 34.056 58.9099 35.8507 57.0868 38.1336C55.2637 40.4166 54.0358 43.1164 53.5132 45.9909C52.9907 48.8653 53.1899 51.8246 54.0929 54.6031C54.9959 57.3816 56.5745 59.8925 58.6871 61.9106L53.3117 68.4774L55.8055 78.4802L65.9467 66.1222C69.1568 67.0714 72.573 67.0714 75.7832 66.1222L85.9244 78.4802L88.4182 68.4774L83.0428 61.9106C84.7714 60.2731 86.1491 58.3013 87.0923 56.115C88.0354 53.9287 88.5242 51.5735 88.529 49.1924ZM58.7703 49.1924C58.7373 46.7908 59.4193 44.4336 60.7296 42.4206C62.0399 40.4076 63.9193 38.8298 66.1287 37.8878C68.3381 36.9458 70.7778 36.6821 73.1375 37.1304C75.4972 37.5787 77.6702 38.7186 79.3803 40.4052C81.0904 42.0918 82.2602 44.2489 82.7411 46.6021C83.2219 48.9554 82.992 51.3985 82.0807 53.6207C81.1693 55.843 79.6176 57.744 77.6229 59.082C75.6282 60.42 73.2807 61.1345 70.8788 61.1347C67.6964 61.1422 64.6402 59.8908 62.377 57.6535C60.1138 55.4162 58.8272 52.3747 58.798 49.1924H58.7703Z" fill="#134E42"/>
</svg>
