<svg viewBox="0 0 24 16" xmlns="http://www.w3.org/2000/svg">
<path d="M1 7.47818C0.532828 7.47818 0.15411 7.8569 0.15411 8.32407C0.15411 8.79124 0.532828 9.16996 1 9.16996L1 7.47818ZM22.4292 9.16996C22.8964 9.16996 23.2751 8.79124 23.2751 8.32407C23.2751 7.8569 22.8964 7.47818 22.4292 7.47818V9.16996ZM17.6705 0.959274C17.3404 0.628678 16.8048 0.628263 16.4742 0.958348C16.1437 1.28843 16.1432 1.82402 16.4733 2.15462L17.6705 0.959274ZM19.4331 3.92179L18.8345 4.51947L19.4331 3.92179ZM19.4331 12.7263L20.0317 13.324L19.4331 12.7263ZM16.4733 14.4935C16.1432 14.8241 16.1437 15.3597 16.4742 15.6898C16.8048 16.0199 17.3404 16.0195 17.6705 15.6889L16.4733 14.4935ZM22.4026 7.9L23.2418 7.79414V7.79414L22.4026 7.9ZM22.4026 8.74814L23.2418 8.854V8.854L22.4026 8.74814ZM1 9.16996L22.4292 9.16996V7.47818L1 7.47818L1 9.16996ZM16.4733 2.15462L18.8345 4.51947L20.0317 3.32412L17.6705 0.959274L16.4733 2.15462ZM18.8345 12.1287L16.4733 14.4935L17.6705 15.6889L20.0317 13.324L18.8345 12.1287ZM18.8345 4.51947C19.79 5.47646 20.4553 6.14462 20.9074 6.71341C21.3486 7.26854 21.5181 7.64744 21.5633 8.00585L23.2418 7.79414C23.1421 7.00323 22.7684 6.336 22.2318 5.66083C21.7061 4.99934 20.9592 4.25305 20.0317 3.32412L18.8345 4.51947ZM20.0317 13.324C20.9592 12.3951 21.7061 11.6488 22.2318 10.9873C22.7684 10.3121 23.1421 9.6449 23.2418 8.854L21.5633 8.64228C21.5181 9.0007 21.3486 9.3796 20.9074 9.93472C20.4553 10.5035 19.79 11.1717 18.8345 12.1287L20.0317 13.324ZM21.5633 8.00585C21.59 8.21716 21.59 8.43098 21.5633 8.64229L23.2418 8.854C23.2862 8.50211 23.2862 8.14603 23.2418 7.79414L21.5633 8.00585Z"/>
</svg>
